<?xml version="1.0" standalone="no"?>
<!DOCTYPE svg PUBLIC "-//W3C//DTD SVG 20010904//EN"
 "http://www.w3.org/TR/2001/REC-SVG-20010904/DTD/svg10.dtd">
<svg version="1.0" xmlns="http://www.w3.org/2000/svg"
 width="497.000000pt" height="75.000000pt" viewBox="0 0 497.000000 75.000000"
 preserveAspectRatio="xMidYMid meet">

<g transform="translate(0.000000,75.000000) scale(0.100000,-0.100000)"
fill="#2b7fff" stroke="none">
<path d="M974 620 c-45 -18 -98 -102 -144 -230 -31 -86 -48 -110 -75 -110 -22
0 -23 4 -22 54 1 69 -12 86 -68 86 -75 0 -144 -83 -145 -171 0 -48 25 -69 80
-69 37 0 48 5 80 39 26 27 47 40 72 43 l35 4 -13 -33 c-20 -46 -18 -53 14 -53
26 0 30 5 51 70 24 76 71 140 102 140 24 0 24 -7 -1 -69 -50 -127 -10 -184 72
-104 38 37 38 37 38 11 0 -65 59 -60 120 9 37 42 41 44 35 20 -19 -75 29 -102
84 -46 34 33 36 33 21 -5 -9 -24 -7 -26 19 -26 27 0 31 5 51 64 12 36 31 80
43 98 22 32 70 58 84 45 3 -4 -8 -46 -27 -95 -18 -48 -35 -93 -37 -99 -4 -9 5
-13 25 -13 29 0 32 4 53 70 25 77 70 140 100 140 24 0 24 -12 -2 -79 -11 -30
-19 -70 -17 -90 3 -31 7 -36 30 -39 19 -2 36 6 62 32 l35 36 13 -28 c30 -62
107 -63 169 -1 l38 38 3 -37 c2 -30 7 -38 26 -40 31 -5 66 19 103 71 l31 42
-6 -38 c-19 -106 47 -105 123 2 17 24 31 51 31 59 0 8 -15 -8 -32 -34 -37 -55
-75 -68 -70 -24 5 48 45 161 82 236 37 72 37 74 15 74 -32 0 -47 -22 -99 -146
-59 -139 -127 -223 -150 -185 -10 16 26 101 56 131 18 18 40 30 56 30 21 0 24
2 12 10 -28 18 -77 11 -108 -15 -17 -14 -44 -49 -60 -78 -70 -124 -180 -160
-170 -55 3 32 5 33 55 38 64 7 95 32 91 74 -2 23 -10 33 -29 40 -57 20 -119
-24 -184 -130 -55 -89 -88 -59 -45 41 11 26 20 58 20 71 0 20 -5 24 -32 24
-18 0 -48 -9 -66 -20 -40 -25 -42 -25 -42 0 0 27 -51 27 -96 -1 l-34 -21 0 21
c0 15 -6 21 -24 21 -20 0 -25 -7 -35 -44 -13 -54 -70 -140 -95 -144 -17 -4
-18 0 -13 32 3 20 19 64 36 96 l29 60 -23 0 c-12 0 -28 -7 -35 -15 -12 -14
-15 -14 -30 0 -24 22 -82 19 -114 -6 -14 -11 -44 -51 -66 -89 -36 -61 -71 -92
-87 -76 -3 3 4 34 16 68 34 95 35 105 14 116 -12 7 -30 6 -57 -3 l-38 -13 25
26 c38 39 97 142 97 168 0 17 -21 38 -33 33 -1 0 -11 -4 -23 -9z m36 -20 c0
-28 -106 -198 -117 -187 -6 7 64 157 84 179 18 20 33 24 33 8z m-312 -212 c16
-16 15 -28 -2 -28 -20 0 -29 -35 -16 -60 22 -41 -52 -119 -89 -95 -31 19 5
135 54 173 32 25 37 26 53 10z m545 5 c4 -3 -5 -27 -19 -52 -70 -122 -152
-154 -103 -41 31 71 95 121 122 93z m667 -12 c0 -20 -53 -71 -74 -71 -23 0
-26 13 -9 39 32 51 83 70 83 32z"/>
<path d="M3323 611 c-40 -25 -77 -88 -124 -214 -43 -111 -80 -167 -111 -167
-17 0 -19 4 -14 28 4 15 21 58 40 95 l33 68 -30 -3 c-26 -3 -36 -13 -74 -83
-51 -93 -75 -120 -97 -112 -20 8 -14 37 25 125 l28 62 -29 0 c-23 0 -32 -7
-49 -42 -28 -59 -45 -133 -37 -163 10 -39 54 -34 97 11 l34 35 5 -33 c4 -26
10 -34 31 -36 20 -2 35 8 67 42 35 38 41 42 36 22 -18 -72 40 -89 104 -32 l38
35 11 -28 c7 -20 22 -32 47 -41 32 -10 42 -9 81 10 25 12 50 31 57 43 10 20
11 19 22 -14 21 -65 87 -43 147 50 14 23 15 22 15 -30 -1 -51 1 -54 25 -57 19
-2 35 7 61 36 l36 40 6 -30 c4 -21 15 -33 42 -44 47 -20 92 -6 141 44 28 30
34 33 29 15 -10 -32 10 -63 39 -63 15 0 41 14 62 34 l38 34 10 -31 c18 -58 73
-47 125 24 l29 40 3 -48 c3 -42 6 -48 27 -51 16 -3 35 7 61 33 35 35 37 35 33
12 -4 -19 1 -29 20 -42 28 -18 64 -13 114 17 20 12 34 15 38 8 11 -17 42 -11
66 14 l24 24 10 -31 c20 -63 88 -39 146 52 14 23 15 22 15 -30 -1 -49 1 -54
22 -57 27 -4 72 32 72 57 0 12 -3 12 -12 3 -7 -7 -18 -12 -26 -12 -17 0 -10
45 19 132 13 36 19 76 17 110 l-3 53 -25 -62 c-24 -62 -33 -72 -45 -53 -10 16
-68 12 -95 -7 -31 -21 -43 -35 -79 -98 -36 -64 -67 -93 -82 -78 -9 9 -6 24 10
57 15 30 21 59 19 88 -3 39 -6 43 -31 46 -22 3 -38 -6 -73 -41 -24 -24 -44
-41 -44 -36 0 16 69 169 89 198 l22 31 -30 0 c-38 0 -58 -31 -111 -176 -40
-106 -78 -164 -108 -164 -23 0 -8 51 56 183 7 14 -46 7 -58 -8 -12 -14 -15
-14 -30 0 -33 29 -99 13 -138 -35 -7 -8 -21 -31 -31 -51 -42 -78 -111 -127
-111 -78 0 56 25 111 77 171 59 68 113 153 113 179 0 31 -26 43 -61 29 -41
-17 -91 -95 -129 -200 -54 -147 -111 -220 -174 -220 -31 0 -50 36 -40 76 5 20
12 24 46 24 81 0 132 56 92 101 -38 42 -121 10 -166 -65 -35 -57 -78 -106 -95
-106 -12 0 -14 8 -8 38 11 59 51 167 89 238 l34 65 -31 -3 c-28 -3 -34 -10
-66 -83 -42 -97 -39 -91 -53 -77 -17 17 -70 15 -98 -5 -31 -22 -43 -36 -80
-100 -53 -93 -139 -134 -160 -77 -6 14 -7 36 -4 50 5 20 12 24 46 24 80 0 132
56 93 100 -44 49 -138 3 -185 -90 -22 -42 -67 -90 -86 -90 -9 0 -14 11 -14 29
0 50 29 113 74 161 49 53 93 118 109 163 8 25 7 32 -8 44 -24 17 -24 17 -62
-6z m57 -12 c0 -20 -60 -123 -96 -164 l-35 -40 21 53 c22 59 57 130 72 150 13
15 38 16 38 1z m860 1 c0 -28 -106 -197 -117 -187 -6 6 35 105 63 155 23 38
54 57 54 32z m-760 -214 c0 -23 -43 -66 -69 -68 -35 -4 -37 18 -3 52 32 31 72
40 72 16z m223 8 c8 -9 -36 -94 -68 -133 -31 -36 -65 -42 -65 -11 0 30 46 116
72 134 23 16 50 21 61 10z m277 -8 c0 -23 -43 -66 -69 -68 -35 -4 -37 18 -3
52 32 31 72 40 72 16z m375 4 c15 -24 -84 -160 -116 -160 -26 0 -24 30 6 90
34 66 90 102 110 70z m548 4 c8 -9 -36 -94 -68 -133 -31 -36 -65 -42 -65 -11
0 30 46 116 72 134 23 16 50 21 61 10z m-288 -35 c11 -17 -54 -139 -81 -151
-59 -27 -52 46 12 121 36 41 57 50 69 30z"/>
<path d="M81 587 c-14 -6 -34 -28 -45 -47 l-20 -35 32 27 c43 36 142 64 142
40 0 -4 -24 -62 -54 -127 -30 -66 -68 -153 -84 -193 l-31 -72 28 0 c25 0 29 5
39 48 18 77 119 310 127 290 4 -9 5 -75 3 -147 l-3 -131 26 0 c20 0 43 23 123
124 135 173 145 179 87 55 -56 -118 -75 -181 -67 -215 5 -20 13 -24 44 -24 21
0 47 7 58 15 19 14 18 14 -2 9 -44 -11 -39 45 17 187 17 42 48 106 69 143 38
65 38 66 15 66 -49 0 -76 -22 -186 -156 l-114 -138 -7 133 c-4 76 -12 139 -19
147 -15 18 -144 19 -178 1z"/>
<path d="M2623 576 c-101 -47 -173 -151 -181 -258 -6 -79 11 -116 62 -139 120
-54 270 15 351 162 24 45 30 66 30 122 0 66 -1 70 -37 103 -35 32 -42 34 -105
34 -51 0 -81 -6 -120 -24z m176 -11 c95 -49 15 -287 -120 -355 -21 -11 -58
-20 -83 -20 -37 0 -48 5 -66 28 -19 23 -21 36 -18 92 9 123 88 227 198 261 39
11 59 10 89 -6z"/>
</g>
</svg>
