<svg xmlns="http://www.w3.org/2000/svg" xmlns:xlink="http://www.w3.org/1999/xlink" width="2000" zoomAndPan="magnify" viewBox="0 0 1500 1499.999933" height="2000" preserveAspectRatio="xMidYMid meet" version="1.0"><defs><g/><clipPath id="c0ca4af128"><rect x="0" width="745" y="0" height="1331"/></clipPath><clipPath id="fb6e8fa81e"><path d="M 959.023438 360.136719 L 1194.8125 360.136719 L 1194.8125 627.582031 L 959.023438 627.582031 Z M 959.023438 360.136719 " clip-rule="nonzero"/></clipPath><clipPath id="5aba9c86cd"><path d="M 0.0234375 0.136719 L 235.8125 0.136719 L 235.8125 267.582031 L 0.0234375 267.582031 Z M 0.0234375 0.136719 " clip-rule="nonzero"/></clipPath><clipPath id="127b75aa88"><rect x="0" width="236" y="0" height="268"/></clipPath><clipPath id="f98bcc5f98"><path d="M 991.445312 606.105469 L 1162.390625 606.105469 L 1162.390625 851 L 991.445312 851 Z M 991.445312 606.105469 " clip-rule="nonzero"/></clipPath><clipPath id="f9ce0bbafd"><path d="M 1054.90625 606.105469 L 1162.390625 606.105469 L 1098.929688 850.941406 L 991.445312 850.941406 Z M 1054.90625 606.105469 " clip-rule="nonzero"/></clipPath><clipPath id="59e8e62a32"><path d="M 0.445312 0.105469 L 171.390625 0.105469 L 171.390625 245 L 0.445312 245 Z M 0.445312 0.105469 " clip-rule="nonzero"/></clipPath><clipPath id="f36a54542e"><path d="M 63.90625 0.105469 L 171.390625 0.105469 L 107.929688 244.941406 L 0.445312 244.941406 Z M 63.90625 0.105469 " clip-rule="nonzero"/></clipPath><clipPath id="cc712d09a6"><rect x="0" width="172" y="0" height="245"/></clipPath><clipPath id="0ba6bbd258"><rect x="0" width="1012" y="0" height="1345"/></clipPath><clipPath id="a04e074fac"><path d="M 271.101562 868.605469 L 456.519531 868.605469 L 456.519531 1118.386719 L 271.101562 1118.386719 Z M 271.101562 868.605469 " clip-rule="nonzero"/></clipPath><clipPath id="04dfa2e371"><path d="M 0.101562 0.605469 L 185.519531 0.605469 L 185.519531 250.386719 L 0.101562 250.386719 Z M 0.101562 0.605469 " clip-rule="nonzero"/></clipPath><clipPath id="4ab33b9f51"><rect x="0" width="186" y="0" height="251"/></clipPath><clipPath id="d9e27dc7d1"><path d="M 299 868 L 429 868 L 429 1157 L 299 1157 Z M 299 868 " clip-rule="nonzero"/></clipPath><clipPath id="208d926aec"><path d="M 488.84375 1103.207031 L 308.785156 1156.957031 L 238.660156 922.039062 L 418.71875 868.289062 Z M 488.84375 1103.207031 " clip-rule="nonzero"/></clipPath><clipPath id="1c7c0b66c6"><path d="M 428.03125 1121.359375 L 308.785156 1156.957031 L 299.566406 904.199219 L 418.8125 868.601562 Z M 428.03125 1121.359375 " clip-rule="nonzero"/></clipPath><clipPath id="627fd4ea64"><path d="M 0.519531 0.558594 L 129.160156 0.558594 L 129.160156 289 L 0.519531 289 Z M 0.519531 0.558594 " clip-rule="nonzero"/></clipPath><clipPath id="ff246a90b0"><path d="M 189.84375 235.207031 L 9.785156 288.957031 L -60.339844 54.039062 L 119.71875 0.289062 Z M 189.84375 235.207031 " clip-rule="nonzero"/></clipPath><clipPath id="c61debb5e3"><path d="M 129.03125 253.359375 L 9.785156 288.957031 L 0.566406 36.199219 L 119.8125 0.601562 Z M 129.03125 253.359375 " clip-rule="nonzero"/></clipPath><clipPath id="069aa4d79c"><rect x="0" width="130" y="0" height="289"/></clipPath><clipPath id="8494b20aca"><path d="M 959.023438 850.941406 L 1194.8125 850.941406 L 1194.8125 1118.386719 L 959.023438 1118.386719 Z M 959.023438 850.941406 " clip-rule="nonzero"/></clipPath><clipPath id="eb58869421"><path d="M 0.0234375 0.941406 L 235.8125 0.941406 L 235.8125 268.386719 L 0.0234375 268.386719 Z M 0.0234375 0.941406 " clip-rule="nonzero"/></clipPath><clipPath id="4004d52a22"><rect x="0" width="236" y="0" height="269"/></clipPath><clipPath id="8c887046c2"><rect x="0" width="1308" y="0" height="84"/></clipPath></defs><g transform="matrix(1, 0, 0, 1, 685, 79)"><g clip-path="url(#c0ca4af128)"><g fill="#ffffff" fill-opacity="1"><g transform="translate(9.286681, 980.919554)"><g><path d="M 382 12.859375 C 315.269531 12.859375 256.039062 -1.375 204.3125 -29.84375 C 152.582031 -58.3125 112.175781 -97.644531 83.09375 -147.84375 C 54.019531 -198.039062 39.484375 -255.890625 39.484375 -321.390625 C 39.484375 -386.890625 54.019531 -444.738281 83.09375 -494.9375 C 112.175781 -545.144531 152.582031 -584.476562 204.3125 -612.9375 C 256.039062 -641.40625 315.269531 -655.640625 382 -655.640625 C 449.332031 -655.640625 508.710938 -641.40625 560.140625 -612.9375 C 611.566406 -584.476562 651.972656 -545.144531 681.359375 -494.9375 C 710.742188 -444.738281 725.4375 -386.890625 725.4375 -321.390625 C 725.4375 -255.890625 710.742188 -198.039062 681.359375 -147.84375 C 651.972656 -97.644531 611.566406 -58.3125 560.140625 -29.84375 C 508.710938 -1.375 449.332031 12.859375 382 12.859375 Z M 188.25 -321.390625 C 188.25 -282.828125 196.507812 -248.851562 213.03125 -219.46875 C 229.5625 -190.082031 252.363281 -167.125 281.4375 -150.59375 C 310.519531 -134.0625 344.039062 -125.796875 382 -125.796875 C 420.5625 -125.796875 454.378906 -134.0625 483.453125 -150.59375 C 512.535156 -167.125 535.1875 -190.082031 551.40625 -219.46875 C 567.632812 -248.851562 575.75 -282.828125 575.75 -321.390625 C 575.75 -359.960938 567.632812 -393.9375 551.40625 -423.3125 C 535.1875 -452.695312 512.535156 -475.65625 483.453125 -492.1875 C 454.378906 -508.71875 420.5625 -516.984375 382 -516.984375 C 344.039062 -516.984375 310.519531 -508.71875 281.4375 -492.1875 C 252.363281 -475.65625 229.5625 -452.695312 213.03125 -423.3125 C 196.507812 -393.9375 188.25 -359.960938 188.25 -321.390625 Z M 188.25 -321.390625 "/></g></g></g></g></g><g clip-path="url(#fb6e8fa81e)"><g transform="matrix(1, 0, 0, 1, 959, 360)"><g clip-path="url(#127b75aa88)"><g clip-path="url(#5aba9c86cd)"><path fill="#1e1c1c" d="M 0.0234375 0.136719 L 235.8125 0.136719 L 235.8125 267.238281 L 0.0234375 267.238281 Z M 0.0234375 0.136719 " fill-opacity="1" fill-rule="nonzero"/></g></g></g></g><g clip-path="url(#f98bcc5f98)"><g clip-path="url(#f9ce0bbafd)"><g transform="matrix(1, 0, 0, 1, 991, 606)"><g clip-path="url(#cc712d09a6)"><g clip-path="url(#59e8e62a32)"><g clip-path="url(#f36a54542e)"><path fill="#e6ff4b" d="M 0.445312 0.105469 L 171.390625 0.105469 L 171.390625 245.175781 L 0.445312 245.175781 Z M 0.445312 0.105469 " fill-opacity="1" fill-rule="nonzero"/></g></g></g></g></g></g><g transform="matrix(1, 0, 0, 1, 0, 44)"><g clip-path="url(#0ba6bbd258)"><g fill="#ffffff" fill-opacity="1"><g transform="translate(254.3088, 1062.293168)"><g><path d="M 62.328125 -26.328125 L -157.078125 -545.71875 L -56.90625 -588.03125 L 241.625 -396.75 L 311.859375 -743.8125 L 411.28125 -785.8125 L 630.6875 -266.421875 L 513.453125 -216.890625 L 381.5 -529.265625 L 333.109375 -291.96875 L 251.484375 -257.5 L 47.28125 -388.96875 L 179.5625 -75.84375 Z M 62.328125 -26.328125 "/></g></g></g></g></g><g clip-path="url(#a04e074fac)"><g transform="matrix(1, 0, 0, 1, 271, 868)"><g clip-path="url(#4ab33b9f51)"><g clip-path="url(#04dfa2e371)"><path fill="#1e1c1c" d="M 0.101562 0.605469 L 185.519531 0.605469 L 185.519531 250.488281 L 0.101562 250.488281 Z M 0.101562 0.605469 " fill-opacity="1" fill-rule="nonzero"/></g></g></g></g><g clip-path="url(#d9e27dc7d1)"><g clip-path="url(#208d926aec)"><g clip-path="url(#1c7c0b66c6)"><g transform="matrix(1, 0, 0, 1, 299, 868)"><g clip-path="url(#069aa4d79c)"><g clip-path="url(#627fd4ea64)"><g clip-path="url(#ff246a90b0)"><g clip-path="url(#c61debb5e3)"><path fill="#e6ff4b" d="M 189.84375 235.207031 L 9.785156 288.957031 L -60.339844 54.039062 L 119.71875 0.289062 Z M 189.84375 235.207031 " fill-opacity="1" fill-rule="nonzero"/></g></g></g></g></g></g></g></g><g clip-path="url(#8494b20aca)"><g transform="matrix(1, 0, 0, 1, 959, 850)"><g clip-path="url(#4004d52a22)"><g clip-path="url(#eb58869421)"><path fill="#1e1c1c" d="M 0.0234375 0.941406 L 235.8125 0.941406 L 235.8125 268.042969 L 0.0234375 268.042969 Z M 0.0234375 0.941406 " fill-opacity="1" fill-rule="nonzero"/></g></g></g></g><g transform="matrix(1, 0, 0, 1, 122, 1203)"><g clip-path="url(#8c887046c2)"><g fill="#e6ff4b" fill-opacity="1"><g transform="translate(1.751134, 66.802811)"><g><path d="M 21.328125 0 L 6.015625 0 L 6.015625 -49.640625 L 22.015625 -49.640625 C 26.828125 -49.640625 30.945312 -48.648438 34.375 -46.671875 C 37.800781 -44.691406 40.425781 -41.851562 42.25 -38.15625 C 44.082031 -34.46875 45 -30.054688 45 -24.921875 C 45 -19.742188 44.078125 -15.289062 42.234375 -11.5625 C 40.390625 -7.84375 37.703125 -4.984375 34.171875 -2.984375 C 30.648438 -0.992188 26.367188 0 21.328125 0 Z M 12.03125 -5.328125 L 20.9375 -5.328125 C 27.101562 -5.328125 31.679688 -7.078125 34.671875 -10.578125 C 37.671875 -14.078125 39.171875 -18.859375 39.171875 -24.921875 C 39.171875 -30.929688 37.695312 -35.664062 34.75 -39.125 C 31.8125 -42.582031 27.4375 -44.3125 21.625 -44.3125 L 12.03125 -44.3125 Z M 12.03125 -5.328125 "/></g></g></g><g fill="#e6ff4b" fill-opacity="1"><g transform="translate(95.269673, 66.802811)"><g/></g></g><g fill="#e6ff4b" fill-opacity="1"><g transform="translate(158.920477, 66.802811)"><g><path d="M 6.015625 0 L 6.015625 -49.640625 L 35.96875 -49.640625 L 35.96875 -44.3125 L 12.03125 -44.3125 L 12.03125 -27.546875 L 34.421875 -27.546875 L 34.421875 -22.203125 L 12.03125 -22.203125 L 12.03125 -5.328125 L 36.359375 -5.328125 L 36.359375 0 Z M 6.015625 0 "/></g></g></g><g fill="#e6ff4b" fill-opacity="1"><g transform="translate(244.196311, 66.802811)"><g/></g></g><g fill="#e6ff4b" fill-opacity="1"><g transform="translate(307.847114, 66.802811)"><g><path d="M 8.046875 -49.640625 L 22.78125 -7.859375 L 23.375 -7.859375 L 38.109375 -49.640625 L 44.40625 -49.640625 L 26.1875 0 L 19.96875 0 L 1.75 -49.640625 Z M 8.046875 -49.640625 "/></g></g></g><g fill="#e6ff4b" fill-opacity="1"><g transform="translate(398.45646, 66.802811)"><g/></g></g><g fill="#e6ff4b" fill-opacity="1"><g transform="translate(462.107263, 66.802811)"><g><path d="M 6.015625 0 L 6.015625 -49.640625 L 35.96875 -49.640625 L 35.96875 -44.3125 L 12.03125 -44.3125 L 12.03125 -27.546875 L 34.421875 -27.546875 L 34.421875 -22.203125 L 12.03125 -22.203125 L 12.03125 -5.328125 L 36.359375 -5.328125 L 36.359375 0 Z M 6.015625 0 "/></g></g></g><g fill="#e6ff4b" fill-opacity="1"><g transform="translate(547.383097, 66.802811)"><g/></g></g><g fill="#e6ff4b" fill-opacity="1"><g transform="translate(611.033901, 66.802811)"><g><path d="M 6.015625 0 L 6.015625 -49.640625 L 12.03125 -49.640625 L 12.03125 -5.328125 L 35.109375 -5.328125 L 35.109375 0 Z M 6.015625 0 "/></g></g></g><g fill="#e6ff4b" fill-opacity="1"><g transform="translate(693.885359, 66.802811)"><g/></g></g><g fill="#e6ff4b" fill-opacity="1"><g transform="translate(757.536219, 66.802811)"><g><path d="M 47.90625 -24.828125 C 47.90625 -19.585938 46.957031 -15.0625 45.0625 -11.25 C 43.175781 -7.4375 40.582031 -4.492188 37.28125 -2.421875 C 33.988281 -0.359375 30.222656 0.671875 25.984375 0.671875 C 21.753906 0.671875 17.988281 -0.359375 14.6875 -2.421875 C 11.394531 -4.492188 8.800781 -7.4375 6.90625 -11.25 C 5.019531 -15.0625 4.078125 -19.585938 4.078125 -24.828125 C 4.078125 -30.054688 5.019531 -34.578125 6.90625 -38.390625 C 8.800781 -42.210938 11.394531 -45.15625 14.6875 -47.21875 C 17.988281 -49.289062 21.753906 -50.328125 25.984375 -50.328125 C 30.222656 -50.328125 33.988281 -49.289062 37.28125 -47.21875 C 40.582031 -45.15625 43.175781 -42.210938 45.0625 -38.390625 C 46.957031 -34.578125 47.90625 -30.054688 47.90625 -24.828125 Z M 42.078125 -24.828125 C 42.078125 -29.117188 41.363281 -32.742188 39.9375 -35.703125 C 38.507812 -38.660156 36.578125 -40.898438 34.140625 -42.421875 C 31.710938 -43.941406 28.992188 -44.703125 25.984375 -44.703125 C 22.984375 -44.703125 20.265625 -43.941406 17.828125 -42.421875 C 15.398438 -40.898438 13.46875 -38.660156 12.03125 -35.703125 C 10.601562 -32.742188 9.890625 -29.117188 9.890625 -24.828125 C 9.890625 -20.523438 10.601562 -16.894531 12.03125 -13.9375 C 13.46875 -10.976562 15.398438 -8.738281 17.828125 -7.21875 C 20.265625 -5.707031 22.984375 -4.953125 25.984375 -4.953125 C 28.992188 -4.953125 31.710938 -5.707031 34.140625 -7.21875 C 36.578125 -8.738281 38.507812 -10.976562 39.9375 -13.9375 C 41.363281 -16.894531 42.078125 -20.523438 42.078125 -24.828125 Z M 42.078125 -24.828125 "/></g></g></g><g fill="#e6ff4b" fill-opacity="1"><g transform="translate(853.963951, 66.802811)"><g/></g></g><g fill="#e6ff4b" fill-opacity="1"><g transform="translate(917.614754, 66.802811)"><g><path d="M 6.015625 0 L 6.015625 -49.640625 L 22.78125 -49.640625 C 26.675781 -49.640625 29.863281 -48.941406 32.34375 -47.546875 C 34.832031 -46.148438 36.671875 -44.265625 37.859375 -41.890625 C 39.054688 -39.515625 39.65625 -36.863281 39.65625 -33.9375 C 39.65625 -31.007812 39.0625 -28.347656 37.875 -25.953125 C 36.6875 -23.566406 34.851562 -21.664062 32.375 -20.25 C 29.90625 -18.84375 26.742188 -18.140625 22.890625 -18.140625 L 12.03125 -18.140625 L 12.03125 0 Z M 12.03125 -23.46875 L 22.6875 -23.46875 C 26.675781 -23.46875 29.515625 -24.46875 31.203125 -26.46875 C 32.898438 -28.476562 33.75 -30.96875 33.75 -33.9375 C 33.75 -36.925781 32.898438 -39.398438 31.203125 -41.359375 C 29.503906 -43.328125 26.632812 -44.3125 22.59375 -44.3125 L 12.03125 -44.3125 Z M 12.03125 -23.46875 "/></g></g></g><g fill="#e6ff4b" fill-opacity="1"><g transform="translate(1005.411852, 66.802811)"><g/></g></g><g fill="#e6ff4b" fill-opacity="1"><g transform="translate(1069.062712, 66.802811)"><g><path d="M 6.015625 0 L 6.015625 -49.640625 L 35.96875 -49.640625 L 35.96875 -44.3125 L 12.03125 -44.3125 L 12.03125 -27.546875 L 34.421875 -27.546875 L 34.421875 -22.203125 L 12.03125 -22.203125 L 12.03125 -5.328125 L 36.359375 -5.328125 L 36.359375 0 Z M 6.015625 0 "/></g></g></g><g fill="#e6ff4b" fill-opacity="1"><g transform="translate(1154.338517, 66.802811)"><g/></g></g><g fill="#e6ff4b" fill-opacity="1"><g transform="translate(1217.989377, 66.802811)"><g><path d="M 6.015625 0 L 6.015625 -49.640625 L 22.78125 -49.640625 C 26.664062 -49.640625 29.851562 -48.984375 32.34375 -47.671875 C 34.832031 -46.359375 36.671875 -44.550781 37.859375 -42.25 C 39.054688 -39.957031 39.65625 -37.347656 39.65625 -34.421875 C 39.65625 -31.128906 38.898438 -28.257812 37.390625 -25.8125 C 35.878906 -23.363281 33.539062 -21.597656 30.375 -20.515625 L 41.59375 0 L 34.625 0 L 24.140625 -19.421875 C 23.742188 -19.398438 23.328125 -19.390625 22.890625 -19.390625 L 12.03125 -19.390625 L 12.03125 0 Z M 12.03125 -24.828125 L 22.6875 -24.828125 C 26.664062 -24.828125 29.503906 -25.679688 31.203125 -27.390625 C 32.898438 -29.109375 33.75 -31.453125 33.75 -34.421875 C 33.75 -37.410156 32.894531 -39.804688 31.1875 -41.609375 C 29.476562 -43.410156 26.613281 -44.3125 22.59375 -44.3125 L 12.03125 -44.3125 Z M 12.03125 -24.828125 "/></g></g></g></g></g></svg>