<svg xmlns="http://www.w3.org/2000/svg" xmlns:xlink="http://www.w3.org/1999/xlink" width="500" zoomAndPan="magnify" viewBox="0 0 375 374.999991" height="500" preserveAspectRatio="xMidYMid meet" version="1.0"><defs><g/><clipPath id="8478bc46a9"><path d="M 170 115 L 206 115 L 206 195.523438 L 170 195.523438 Z M 170 115 " clip-rule="nonzero"/></clipPath></defs><g fill="#2b7fff" fill-opacity="1"><g transform="translate(88.185859, 186.622649)"><g><path d="M 25.125 11.625 L 22.984375 11.625 C 14.660156 11.625 10.5 6.945312 10.5 -2.40625 L 10.5 -16.53125 C 10.5 -18.59375 10.066406 -20.335938 9.203125 -21.765625 C 8.347656 -23.203125 6.941406 -23.921875 4.984375 -23.921875 L 4.984375 -27.796875 C 8.660156 -27.796875 10.5 -30.578125 10.5 -36.140625 L 10.5 -49.3125 C 10.5 -58.664062 14.742188 -63.34375 23.234375 -63.34375 L 25.125 -63.34375 L 25.125 -59.296875 C 21.96875 -59.296875 19.898438 -58.804688 18.921875 -57.828125 C 17.953125 -56.859375 17.46875 -54.820312 17.46875 -51.71875 L 17.46875 -37.09375 C 17.46875 -30.894531 15.578125 -27.132812 11.796875 -25.8125 C 15.578125 -24.5 17.46875 -20.769531 17.46875 -14.625 L 17.46875 0.6875 C 17.46875 3.5 18.007812 5.347656 19.09375 6.234375 C 20.1875 7.128906 22.195312 7.578125 25.125 7.578125 Z M 25.125 11.625 "/></g></g></g><g fill="#2b7fff" fill-opacity="1"><g transform="translate(118.221013, 186.622649)"><g/></g></g><g fill="#2b7fff" fill-opacity="1"><g transform="translate(138.012699, 186.622649)"><g/></g></g><g fill="#2b7fff" fill-opacity="1"><g transform="translate(157.804385, 186.622649)"><g/></g></g><g fill="#2b7fff" fill-opacity="1"><g transform="translate(177.59607, 186.622649)"><g/></g></g><g fill="#2b7fff" fill-opacity="1"><g transform="translate(197.387756, 186.622649)"><g/></g></g><g fill="#2b7fff" fill-opacity="1"><g transform="translate(217.179442, 186.622649)"><g/></g></g><g fill="#2b7fff" fill-opacity="1"><g transform="translate(236.971128, 186.622649)"><g/></g></g><g fill="#2b7fff" fill-opacity="1"><g transform="translate(256.771786, 186.622649)"><g><path d="M 6.890625 11.625 L 4.984375 11.625 L 4.984375 7.578125 C 8.085938 7.578125 10.125 7.070312 11.09375 6.0625 C 12.070312 5.0625 12.5625 3.039062 12.5625 0 L 12.5625 -14.625 C 12.5625 -20.769531 14.457031 -24.5 18.25 -25.8125 C 14.457031 -27.132812 12.5625 -30.894531 12.5625 -37.09375 L 12.5625 -52.40625 C 12.5625 -55.164062 12.015625 -57.003906 10.921875 -57.921875 C 9.835938 -58.835938 7.859375 -59.296875 4.984375 -59.296875 L 4.984375 -63.34375 L 5.59375 -63.34375 C 10.46875 -63.34375 14.007812 -62.25 16.21875 -60.0625 C 18.425781 -57.882812 19.53125 -54.300781 19.53125 -49.3125 L 19.53125 -35.203125 C 19.53125 -33.128906 19.972656 -31.375 20.859375 -29.9375 C 21.753906 -28.507812 23.175781 -27.796875 25.125 -27.796875 L 25.125 -23.921875 C 21.394531 -23.921875 19.53125 -21.140625 19.53125 -15.578125 L 19.53125 -2.40625 C 19.53125 6.945312 15.316406 11.625 6.890625 11.625 Z M 6.890625 11.625 "/></g></g></g><path fill="#2b7fff" d="M 142.453125 252.785156 C 141.113281 253.320312 139.53125 255.824219 138.160156 259.640625 C 137.234375 262.203125 136.730469 262.917969 135.925781 262.917969 C 135.269531 262.917969 135.238281 262.800781 135.269531 261.308594 C 135.296875 259.253906 134.910156 258.746094 133.242188 258.746094 C 131.003906 258.746094 128.949219 261.21875 128.917969 263.84375 C 128.917969 265.273438 129.664062 265.902344 131.304688 265.902344 C 132.40625 265.902344 132.734375 265.75 133.6875 264.738281 C 134.464844 263.933594 135.089844 263.546875 135.835938 263.457031 L 136.878906 263.335938 L 136.492188 264.320312 C 135.894531 265.691406 135.953125 265.902344 136.90625 265.902344 C 137.683594 265.902344 137.800781 265.75 138.429688 263.8125 C 139.144531 261.546875 140.546875 259.640625 141.46875 259.640625 C 142.183594 259.640625 142.183594 259.847656 141.441406 261.699219 C 139.949219 265.484375 141.140625 267.183594 143.585938 264.796875 C 144.71875 263.695312 144.71875 263.695312 144.71875 264.46875 C 144.71875 266.40625 146.476562 266.257812 148.296875 264.203125 C 149.398438 262.949219 149.519531 262.890625 149.339844 263.605469 C 148.773438 265.839844 150.203125 266.644531 151.84375 264.976562 C 152.859375 263.992188 152.917969 263.992188 152.46875 265.125 C 152.203125 265.839844 152.261719 265.902344 153.035156 265.902344 C 153.839844 265.902344 153.960938 265.75 154.558594 263.992188 C 154.914062 262.917969 155.480469 261.609375 155.839844 261.070312 C 156.496094 260.117188 157.925781 259.34375 158.34375 259.730469 C 158.433594 259.847656 158.105469 261.101562 157.539062 262.5625 C 157 263.992188 156.496094 265.335938 156.433594 265.511719 C 156.316406 265.78125 156.585938 265.902344 157.179688 265.902344 C 158.046875 265.902344 158.132812 265.78125 158.761719 263.8125 C 159.507812 261.519531 160.847656 259.640625 161.742188 259.640625 C 162.457031 259.640625 162.457031 260 161.683594 261.996094 C 161.355469 262.890625 161.117188 264.082031 161.175781 264.679688 C 161.265625 265.601562 161.382812 265.75 162.070312 265.839844 C 162.636719 265.902344 163.144531 265.664062 163.917969 264.886719 L 164.960938 263.8125 L 165.347656 264.648438 C 166.242188 266.496094 168.539062 266.527344 170.386719 264.679688 L 171.519531 263.546875 L 171.609375 264.648438 C 171.667969 265.542969 171.820312 265.78125 172.386719 265.839844 C 173.308594 265.992188 174.351562 265.273438 175.457031 263.726562 L 176.378906 262.472656 L 176.199219 263.605469 C 175.632812 266.765625 177.601562 266.734375 179.867188 263.546875 C 180.375 262.832031 180.792969 262.023438 180.792969 261.785156 C 180.792969 261.546875 180.34375 262.023438 179.839844 262.800781 C 178.734375 264.441406 177.601562 264.828125 177.75 263.515625 C 177.898438 262.085938 179.09375 258.714844 180.195312 256.480469 C 181.300781 254.332031 181.300781 254.273438 180.644531 254.273438 C 179.6875 254.273438 179.242188 254.929688 177.691406 258.625 C 175.933594 262.769531 173.90625 265.273438 173.21875 264.140625 C 172.921875 263.664062 173.996094 261.132812 174.890625 260.238281 C 175.425781 259.699219 176.082031 259.34375 176.558594 259.34375 C 177.183594 259.34375 177.273438 259.28125 176.917969 259.042969 C 176.082031 258.507812 174.621094 258.714844 173.695312 259.492188 C 173.191406 259.910156 172.386719 260.953125 171.90625 261.816406 C 169.820312 265.511719 166.542969 266.585938 166.839844 263.457031 C 166.929688 262.503906 166.988281 262.472656 168.480469 262.324219 C 170.386719 262.113281 171.3125 261.371094 171.191406 260.117188 C 171.132812 259.429688 170.894531 259.132812 170.328125 258.925781 C 168.628906 258.328125 166.78125 259.640625 164.84375 262.800781 C 163.203125 265.453125 162.21875 264.558594 163.5 261.578125 C 163.828125 260.804688 164.097656 259.847656 164.097656 259.460938 C 164.097656 258.863281 163.949219 258.746094 163.144531 258.746094 C 162.605469 258.746094 161.710938 259.015625 161.175781 259.34375 C 159.984375 260.085938 159.921875 260.085938 159.921875 259.34375 C 159.921875 258.539062 158.402344 258.539062 157.0625 259.371094 L 156.046875 260 L 156.046875 259.371094 C 156.046875 258.925781 155.867188 258.746094 155.332031 258.746094 C 154.734375 258.746094 154.585938 258.953125 154.289062 260.058594 C 153.902344 261.667969 152.203125 264.230469 151.457031 264.351562 C 150.949219 264.46875 150.921875 264.351562 151.070312 263.398438 C 151.160156 262.800781 151.636719 261.488281 152.140625 260.535156 L 153.007812 258.746094 L 152.320312 258.746094 C 151.964844 258.746094 151.488281 258.953125 151.277344 259.191406 C 150.921875 259.609375 150.832031 259.609375 150.382812 259.191406 C 149.667969 258.539062 147.9375 258.625 146.984375 259.371094 C 146.566406 259.699219 145.671875 260.890625 145.015625 262.023438 C 143.945312 263.84375 142.902344 264.769531 142.421875 264.292969 C 142.335938 264.203125 142.542969 263.277344 142.902344 262.265625 C 143.914062 259.429688 143.945312 259.132812 143.316406 258.804688 C 142.960938 258.597656 142.421875 258.625 141.617188 258.894531 L 140.484375 259.28125 L 141.230469 258.507812 C 142.363281 257.34375 144.121094 254.273438 144.121094 253.5 C 144.121094 252.992188 143.496094 252.367188 143.140625 252.515625 C 143.109375 252.515625 142.8125 252.632812 142.453125 252.785156 Z M 143.527344 253.378906 C 143.527344 254.214844 140.367188 259.28125 140.039062 258.953125 C 139.859375 258.746094 141.945312 254.273438 142.542969 253.617188 C 143.078125 253.023438 143.527344 252.902344 143.527344 253.378906 Z M 134.226562 259.699219 C 134.703125 260.175781 134.671875 260.535156 134.164062 260.535156 C 133.570312 260.535156 133.300781 261.578125 133.6875 262.324219 C 134.34375 263.546875 132.136719 265.871094 131.035156 265.15625 C 130.109375 264.589844 131.183594 261.132812 132.644531 260 C 133.597656 259.253906 133.75 259.222656 134.226562 259.699219 Z M 150.472656 259.550781 C 150.59375 259.640625 150.324219 260.355469 149.90625 261.101562 C 147.820312 264.738281 145.375 265.691406 146.835938 262.324219 C 147.761719 260.207031 149.667969 258.714844 150.472656 259.550781 Z M 170.359375 259.910156 C 170.359375 260.503906 168.777344 262.023438 168.152344 262.023438 C 167.464844 262.023438 167.375 261.636719 167.882812 260.863281 C 168.835938 259.34375 170.359375 258.777344 170.359375 259.910156 Z M 170.359375 259.910156 " fill-opacity="1" fill-rule="nonzero"/><path fill="#2b7fff" d="M 212.484375 253.050781 C 211.289062 253.796875 210.1875 255.675781 208.785156 259.429688 C 207.503906 262.742188 206.402344 264.410156 205.476562 264.410156 C 204.96875 264.410156 204.910156 264.292969 205.058594 263.574219 C 205.179688 263.128906 205.6875 261.847656 206.253906 260.742188 L 207.234375 258.714844 L 206.339844 258.804688 C 205.566406 258.894531 205.269531 259.191406 204.136719 261.28125 C 202.613281 264.050781 201.898438 264.859375 201.242188 264.617188 C 200.648438 264.378906 200.828125 263.515625 201.988281 260.890625 L 202.824219 259.042969 L 201.960938 259.042969 C 201.273438 259.042969 201.003906 259.253906 200.5 260.296875 C 199.664062 262.054688 199.15625 264.261719 199.394531 265.15625 C 199.691406 266.316406 201.003906 266.167969 202.285156 264.828125 L 203.300781 263.785156 L 203.449219 264.769531 C 203.570312 265.542969 203.746094 265.78125 204.375 265.839844 C 204.96875 265.902344 205.417969 265.601562 206.371094 264.589844 C 207.414062 263.457031 207.59375 263.335938 207.445312 263.933594 C 206.90625 266.078125 208.636719 266.585938 210.546875 264.886719 L 211.679688 263.84375 L 212.007812 264.679688 C 212.214844 265.273438 212.660156 265.632812 213.40625 265.902344 C 214.359375 266.199219 214.660156 266.167969 215.820312 265.601562 C 216.566406 265.246094 217.3125 264.679688 217.519531 264.320312 C 217.820312 263.726562 217.847656 263.753906 218.175781 264.738281 C 218.804688 266.675781 220.769531 266.019531 222.558594 263.246094 C 222.976562 262.5625 223.007812 262.589844 223.007812 264.140625 C 222.976562 265.664062 223.035156 265.75 223.753906 265.839844 C 224.320312 265.902344 224.796875 265.632812 225.570312 264.769531 L 226.644531 263.574219 L 226.824219 264.46875 C 226.941406 265.097656 227.269531 265.453125 228.074219 265.78125 C 229.476562 266.378906 230.816406 265.960938 232.277344 264.46875 C 233.113281 263.574219 233.292969 263.484375 233.144531 264.023438 C 232.84375 264.976562 233.441406 265.902344 234.304688 265.902344 C 234.753906 265.902344 235.527344 265.484375 236.152344 264.886719 L 237.285156 263.875 L 237.585938 264.796875 C 238.121094 266.527344 239.761719 266.199219 241.3125 264.082031 L 242.175781 262.890625 L 242.265625 264.320312 C 242.355469 265.574219 242.445312 265.75 243.070312 265.839844 C 243.546875 265.929688 244.113281 265.632812 244.890625 264.859375 C 245.933594 263.8125 245.992188 263.8125 245.871094 264.5 C 245.753906 265.066406 245.902344 265.363281 246.46875 265.75 C 247.304688 266.289062 248.378906 266.140625 249.867188 265.246094 C 250.464844 264.886719 250.882812 264.796875 251 265.007812 C 251.328125 265.511719 252.253906 265.335938 252.96875 264.589844 L 253.683594 263.875 L 253.980469 264.796875 C 254.578125 266.675781 256.605469 265.960938 258.335938 263.246094 C 258.75 262.5625 258.78125 262.589844 258.78125 264.140625 C 258.75 265.601562 258.8125 265.75 259.4375 265.839844 C 260.242188 265.960938 261.585938 264.886719 261.585938 264.140625 C 261.585938 263.785156 261.496094 263.785156 261.226562 264.050781 C 261.019531 264.261719 260.691406 264.410156 260.453125 264.410156 C 259.945312 264.410156 260.152344 263.070312 261.019531 260.476562 C 261.40625 259.402344 261.585938 258.210938 261.523438 257.195312 L 261.433594 255.617188 L 260.691406 257.464844 C 259.972656 259.3125 259.707031 259.609375 259.347656 259.042969 C 259.050781 258.566406 257.320312 258.6875 256.515625 259.253906 C 255.589844 259.878906 255.234375 260.296875 254.160156 262.175781 C 253.085938 264.082031 252.164062 264.945312 251.714844 264.5 C 251.449219 264.230469 251.539062 263.785156 252.015625 262.800781 C 252.460938 261.90625 252.640625 261.042969 252.582031 260.175781 C 252.492188 259.015625 252.402344 258.894531 251.65625 258.804688 C 251 258.714844 250.523438 258.984375 249.480469 260.027344 C 248.765625 260.742188 248.167969 261.25 248.167969 261.101562 C 248.167969 260.625 250.226562 256.0625 250.820312 255.199219 L 251.476562 254.273438 L 250.582031 254.273438 C 249.449219 254.273438 248.855469 255.199219 247.273438 259.519531 C 246.082031 262.679688 244.949219 264.410156 244.054688 264.410156 C 243.367188 264.410156 243.816406 262.890625 245.722656 258.953125 C 245.933594 258.539062 244.351562 258.746094 243.996094 259.191406 C 243.636719 259.609375 243.546875 259.609375 243.101562 259.191406 C 242.117188 258.328125 240.148438 258.804688 238.984375 260.238281 C 238.777344 260.476562 238.359375 261.160156 238.0625 261.757812 C 236.808594 264.082031 234.753906 265.542969 234.753906 264.082031 C 234.753906 262.414062 235.5 260.773438 237.046875 258.984375 C 238.808594 256.957031 240.417969 254.421875 240.417969 253.648438 C 240.417969 252.722656 239.640625 252.367188 238.597656 252.785156 C 237.375 253.289062 235.886719 255.617188 234.753906 258.746094 C 233.144531 263.128906 231.445312 265.304688 229.566406 265.304688 C 228.640625 265.304688 228.074219 264.230469 228.371094 263.039062 C 228.523438 262.441406 228.730469 262.324219 229.746094 262.324219 C 232.160156 262.324219 233.679688 260.652344 232.488281 259.3125 C 231.355469 258.058594 228.878906 259.015625 227.539062 261.25 C 226.496094 262.949219 225.210938 264.410156 224.707031 264.410156 C 224.347656 264.410156 224.289062 264.171875 224.46875 263.277344 C 224.796875 261.519531 225.988281 258.296875 227.121094 256.183594 L 228.132812 254.246094 L 227.210938 254.332031 C 226.375 254.421875 226.195312 254.632812 225.242188 256.808594 C 223.992188 259.699219 224.078125 259.519531 223.664062 259.105469 C 223.15625 258.597656 221.574219 258.65625 220.742188 259.253906 C 219.816406 259.910156 219.460938 260.324219 218.355469 262.234375 C 216.777344 265.007812 214.210938 266.230469 213.585938 264.53125 C 213.40625 264.113281 213.378906 263.457031 213.464844 263.039062 C 213.617188 262.441406 213.824219 262.324219 214.839844 262.324219 C 217.222656 262.324219 218.773438 260.652344 217.609375 259.34375 C 216.300781 257.882812 213.496094 259.253906 212.09375 262.023438 C 211.4375 263.277344 210.097656 264.707031 209.53125 264.707031 C 209.261719 264.707031 209.113281 264.378906 209.113281 263.84375 C 209.113281 262.351562 209.980469 260.476562 211.320312 259.042969 C 212.78125 257.464844 214.09375 255.527344 214.570312 254.183594 C 214.808594 253.4375 214.777344 253.230469 214.332031 252.871094 C 213.617188 252.367188 213.617188 252.367188 212.484375 253.050781 Z M 214.183594 253.410156 C 214.183594 254.003906 212.394531 257.078125 211.320312 258.296875 L 210.277344 259.492188 L 210.902344 257.910156 C 211.558594 256.152344 212.601562 254.035156 213.050781 253.4375 C 213.4375 252.992188 214.183594 252.960938 214.183594 253.410156 Z M 239.820312 253.378906 C 239.820312 254.214844 236.660156 259.253906 236.332031 258.953125 C 236.152344 258.777344 237.375 255.824219 238.210938 254.332031 C 238.898438 253.199219 239.820312 252.632812 239.820312 253.378906 Z M 217.164062 259.757812 C 217.164062 260.445312 215.882812 261.726562 215.105469 261.785156 C 214.0625 261.90625 214.003906 261.25 215.015625 260.238281 C 215.972656 259.3125 217.164062 259.042969 217.164062 259.757812 Z M 223.8125 259.519531 C 224.050781 259.789062 222.738281 262.324219 221.785156 263.484375 C 220.859375 264.558594 219.847656 264.738281 219.847656 263.8125 C 219.847656 262.917969 221.21875 260.355469 221.992188 259.820312 C 222.679688 259.34375 223.484375 259.191406 223.8125 259.519531 Z M 232.070312 259.757812 C 232.070312 260.445312 230.789062 261.726562 230.011719 261.785156 C 228.96875 261.90625 228.910156 261.25 229.921875 260.238281 C 230.878906 259.3125 232.070312 259.042969 232.070312 259.757812 Z M 243.25 259.640625 C 243.695312 260.355469 240.746094 264.410156 239.792969 264.410156 C 239.015625 264.410156 239.074219 263.515625 239.96875 261.726562 C 240.984375 259.757812 242.652344 258.6875 243.25 259.640625 Z M 259.585938 259.519531 C 259.824219 259.789062 258.511719 262.324219 257.558594 263.484375 C 256.636719 264.558594 255.621094 264.738281 255.621094 263.8125 C 255.621094 262.917969 256.992188 260.355469 257.769531 259.820312 C 258.453125 259.34375 259.257812 259.191406 259.585938 259.519531 Z M 251 260.566406 C 251.328125 261.070312 249.390625 264.707031 248.585938 265.066406 C 246.828125 265.871094 247.035156 263.695312 248.945312 261.457031 C 250.015625 260.238281 250.644531 259.96875 251 260.566406 Z M 251 260.566406 " fill-opacity="1" fill-rule="nonzero"/><path fill="#2b7fff" d="M 115.832031 253.765625 C 115.414062 253.945312 114.816406 254.601562 114.488281 255.167969 L 113.894531 256.210938 L 114.847656 255.40625 C 116.128906 254.332031 119.082031 253.5 119.082031 254.214844 C 119.082031 254.332031 118.363281 256.0625 117.46875 258 C 116.574219 259.96875 115.441406 262.5625 114.964844 263.753906 L 114.042969 265.902344 L 114.875 265.902344 C 115.621094 265.902344 115.742188 265.75 116.039062 264.46875 C 116.574219 262.175781 119.585938 255.226562 119.824219 255.824219 C 119.945312 256.09375 119.976562 258.058594 119.914062 260.207031 L 119.824219 264.113281 L 120.601562 264.113281 C 121.195312 264.113281 121.882812 263.425781 124.269531 260.414062 C 128.292969 255.257812 128.589844 255.078125 126.863281 258.777344 C 125.191406 262.292969 124.625 264.171875 124.863281 265.183594 C 125.011719 265.78125 125.25 265.902344 126.175781 265.902344 C 126.800781 265.902344 127.578125 265.691406 127.90625 265.453125 C 128.472656 265.035156 128.441406 265.035156 127.84375 265.183594 C 126.535156 265.511719 126.683594 263.84375 128.351562 259.609375 C 128.859375 258.359375 129.78125 256.449219 130.410156 255.347656 C 131.542969 253.410156 131.542969 253.378906 130.855469 253.378906 C 129.394531 253.378906 128.589844 254.035156 125.3125 258.03125 L 121.914062 262.144531 L 121.703125 258.179688 C 121.585938 255.914062 121.347656 254.035156 121.136719 253.796875 C 120.691406 253.261719 116.84375 253.230469 115.832031 253.765625 Z M 115.832031 253.765625 " fill-opacity="1" fill-rule="nonzero"/><path fill="#2b7fff" d="M 191.613281 254.09375 C 188.601562 255.496094 186.457031 258.597656 186.21875 261.785156 C 186.039062 264.140625 186.546875 265.246094 188.066406 265.929688 C 191.644531 267.539062 196.117188 265.484375 198.53125 261.101562 C 199.246094 259.757812 199.425781 259.132812 199.425781 257.464844 C 199.425781 255.496094 199.394531 255.378906 198.320312 254.394531 C 197.277344 253.4375 197.070312 253.378906 195.191406 253.378906 C 193.671875 253.378906 192.777344 253.558594 191.613281 254.09375 Z M 196.859375 254.421875 C 199.691406 255.882812 197.308594 262.980469 193.285156 265.007812 C 192.65625 265.335938 191.554688 265.601562 190.808594 265.601562 C 189.707031 265.601562 189.378906 265.453125 188.839844 264.769531 C 188.273438 264.082031 188.214844 263.695312 188.304688 262.023438 C 188.574219 258.359375 190.929688 255.257812 194.207031 254.246094 C 195.371094 253.917969 195.964844 253.945312 196.859375 254.421875 Z M 196.859375 254.421875 " fill-opacity="1" fill-rule="nonzero"/><path fill="#ffffff" d="M 158.910156 184.277344 C 157.195312 184.277344 156.050781 183.707031 154.910156 182.5625 L 132.039062 159.691406 C 129.753906 157.40625 129.753906 153.972656 132.039062 151.6875 L 154.910156 128.816406 C 157.195312 126.53125 160.625 126.53125 162.914062 128.816406 C 165.199219 131.105469 165.199219 134.535156 162.914062 136.824219 L 144.046875 155.691406 L 162.914062 174.558594 C 165.199219 176.84375 165.199219 180.273438 162.914062 182.5625 C 161.769531 183.707031 160.625 184.277344 158.910156 184.277344 Z M 158.910156 184.277344 " fill-opacity="1" fill-rule="nonzero"/><path fill="#ffffff" d="M 216.085938 184.277344 C 214.371094 184.277344 213.226562 183.707031 212.082031 182.5625 C 209.796875 180.273438 209.796875 176.84375 212.082031 174.558594 L 230.949219 155.691406 L 212.082031 136.824219 C 209.796875 134.535156 209.796875 131.105469 212.082031 128.816406 C 214.371094 126.53125 217.800781 126.53125 220.085938 128.816406 L 242.957031 151.6875 C 245.246094 153.972656 245.246094 157.40625 242.957031 159.691406 L 220.085938 182.5625 C 218.945312 183.707031 217.800781 184.277344 216.085938 184.277344 Z M 216.085938 184.277344 " fill-opacity="1" fill-rule="nonzero"/><g clip-path="url(#8478bc46a9)"><path fill="#ffffff" d="M 176.0625 195.710938 C 175.492188 195.710938 174.921875 195.710938 174.347656 195.140625 C 171.488281 193.996094 169.773438 191.136719 170.917969 187.707031 L 193.789062 119.097656 C 194.929688 116.238281 197.789062 114.523438 201.21875 115.667969 C 204.078125 116.8125 205.792969 119.671875 204.652344 123.101562 L 181.78125 191.710938 C 180.636719 193.996094 178.351562 195.710938 176.0625 195.710938 Z M 176.0625 195.710938 " fill-opacity="1" fill-rule="nonzero"/></g><g fill="#ffffff" fill-opacity="1"><g transform="translate(19.031253, 235.606273)"><g><path d="M 14.84375 -16.171875 L 14.84375 0 L 7.859375 0 L 7.859375 -16.171875 L 0.734375 -16.171875 L 0.734375 -21.734375 L 21.953125 -21.734375 L 21.953125 -16.171875 Z M 14.84375 -16.171875 "/></g></g></g><g fill="#ffffff" fill-opacity="1"><g transform="translate(41.841936, 235.606273)"><g><path d="M 2.65625 0 L 2.65625 -21.734375 L 9.640625 -21.734375 L 9.640625 0 Z M 2.65625 0 "/></g></g></g><g fill="#ffffff" fill-opacity="1"><g transform="translate(54.131906, 235.606273)"><g><path d="M 21.015625 0 L 21.015625 -7.828125 C 21.015625 -8.796875 21.050781 -9.789062 21.125 -10.8125 C 21.195312 -11.84375 21.273438 -12.703125 21.359375 -13.390625 C 21.441406 -14.085938 21.492188 -14.53125 21.515625 -14.71875 L 21.390625 -14.71875 L 17.375 0 L 11.90625 0 L 7.859375 -14.6875 L 7.734375 -14.6875 C 7.753906 -14.5 7.8125 -14.0625 7.90625 -13.375 C 8.007812 -12.695312 8.101562 -11.84375 8.1875 -10.8125 C 8.269531 -9.789062 8.3125 -8.796875 8.3125 -7.828125 L 8.3125 0 L 1.890625 0 L 1.890625 -21.734375 L 11.75 -21.734375 L 15.03125 -9.1875 L 15.171875 -9.1875 L 18.421875 -21.734375 L 27.921875 -21.734375 L 27.921875 0 Z M 21.015625 0 "/></g></g></g><g fill="#ffffff" fill-opacity="1"><g transform="translate(83.956397, 235.606273)"><g><path d="M 2.34375 -21.734375 L 21.140625 -21.734375 L 21.140625 -16.53125 L 9.3125 -16.53125 L 9.3125 -13.515625 L 19.4375 -13.515625 L 19.4375 -8.53125 L 9.3125 -8.53125 L 9.3125 -5.21875 L 21.359375 -5.21875 L 21.359375 0 L 2.34375 0 Z M 2.34375 -21.734375 "/></g></g></g><g fill="#ffffff" fill-opacity="1"><g transform="translate(106.76708, 235.606273)"><g/></g></g><g fill="#ffffff" fill-opacity="1"><g transform="translate(117.287793, 235.606273)"><g><path d="M 14.84375 -16.171875 L 14.84375 0 L 7.859375 0 L 7.859375 -16.171875 L 0.734375 -16.171875 L 0.734375 -21.734375 L 21.953125 -21.734375 L 21.953125 -16.171875 Z M 14.84375 -16.171875 "/></g></g></g><g fill="#ffffff" fill-opacity="1"><g transform="translate(140.098476, 235.606273)"><g><path d="M 13.140625 -22.109375 C 16.890625 -22.109375 19.785156 -21.148438 21.828125 -19.234375 C 23.867188 -17.316406 24.890625 -14.53125 24.890625 -10.875 C 24.890625 -7.207031 23.867188 -4.414062 21.828125 -2.5 C 19.785156 -0.582031 16.890625 0.375 13.140625 0.375 C 9.390625 0.375 6.5 -0.578125 4.46875 -2.484375 C 2.4375 -4.390625 1.421875 -7.1875 1.421875 -10.875 C 1.421875 -14.550781 2.4375 -17.34375 4.46875 -19.25 C 6.5 -21.15625 9.390625 -22.109375 13.140625 -22.109375 Z M 13.140625 -16.90625 C 11.648438 -16.90625 10.515625 -16.453125 9.734375 -15.546875 C 8.953125 -14.640625 8.5625 -13.414062 8.5625 -11.875 L 8.5625 -9.859375 C 8.5625 -8.316406 8.953125 -7.09375 9.734375 -6.1875 C 10.515625 -5.28125 11.648438 -4.828125 13.140625 -4.828125 C 14.640625 -4.828125 15.78125 -5.28125 16.5625 -6.1875 C 17.351562 -7.09375 17.75 -8.316406 17.75 -9.859375 L 17.75 -11.875 C 17.75 -13.414062 17.351562 -14.640625 16.5625 -15.546875 C 15.78125 -16.453125 14.640625 -16.90625 13.140625 -16.90625 Z M 13.140625 -16.90625 "/></g></g></g><g fill="#ffffff" fill-opacity="1"><g transform="translate(166.416063, 235.606273)"><g/></g></g><g fill="#ffffff" fill-opacity="1"><g transform="translate(176.936776, 235.606273)"><g><path d="M 14.53125 -21.734375 C 15.882812 -21.734375 17.085938 -21.421875 18.140625 -20.796875 C 19.191406 -20.179688 20.007812 -19.332031 20.59375 -18.25 C 21.1875 -17.164062 21.484375 -15.945312 21.484375 -14.59375 L 21.484375 -14.1875 C 21.484375 -12.832031 21.1875 -11.609375 20.59375 -10.515625 C 20.007812 -9.421875 19.191406 -8.5625 18.140625 -7.9375 C 17.085938 -7.320312 15.882812 -7.015625 14.53125 -7.015625 L 9.3125 -7.015625 L 9.3125 0 L 2.34375 0 L 2.34375 -21.734375 Z M 9.3125 -12.09375 L 12.1875 -12.09375 C 12.925781 -12.09375 13.476562 -12.28125 13.84375 -12.65625 C 14.21875 -13.039062 14.40625 -13.5625 14.40625 -14.21875 L 14.40625 -14.46875 C 14.40625 -15.144531 14.21875 -15.664062 13.84375 -16.03125 C 13.476562 -16.40625 12.925781 -16.59375 12.1875 -16.59375 L 9.3125 -16.59375 Z M 9.3125 -12.09375 "/></g></g></g><g fill="#ffffff" fill-opacity="1"><g transform="translate(199.747459, 235.606273)"><g><path d="M 22.96875 -15.0625 C 22.96875 -13.738281 22.609375 -12.539062 21.890625 -11.46875 C 21.179688 -10.394531 20.140625 -9.601562 18.765625 -9.09375 L 23.59375 0 L 15.765625 0 L 11.90625 -7.9375 L 9.3125 -7.9375 L 9.3125 0 L 2.34375 0 L 2.34375 -21.734375 L 15.640625 -21.734375 C 17.203125 -21.734375 18.535156 -21.429688 19.640625 -20.828125 C 20.742188 -20.234375 21.570312 -19.425781 22.125 -18.40625 C 22.6875 -17.382812 22.96875 -16.269531 22.96875 -15.0625 Z M 15.859375 -14.78125 C 15.859375 -15.351562 15.664062 -15.828125 15.28125 -16.203125 C 14.90625 -16.585938 14.445312 -16.78125 13.90625 -16.78125 L 9.3125 -16.78125 L 9.3125 -12.765625 L 13.90625 -12.765625 C 14.445312 -12.765625 14.90625 -12.957031 15.28125 -13.34375 C 15.664062 -13.738281 15.859375 -14.21875 15.859375 -14.78125 Z M 15.859375 -14.78125 "/></g></g></g><g fill="#ffffff" fill-opacity="1"><g transform="translate(224.327398, 235.606273)"><g><path d="M 13.140625 -22.109375 C 16.890625 -22.109375 19.785156 -21.148438 21.828125 -19.234375 C 23.867188 -17.316406 24.890625 -14.53125 24.890625 -10.875 C 24.890625 -7.207031 23.867188 -4.414062 21.828125 -2.5 C 19.785156 -0.582031 16.890625 0.375 13.140625 0.375 C 9.390625 0.375 6.5 -0.578125 4.46875 -2.484375 C 2.4375 -4.390625 1.421875 -7.1875 1.421875 -10.875 C 1.421875 -14.550781 2.4375 -17.34375 4.46875 -19.25 C 6.5 -21.15625 9.390625 -22.109375 13.140625 -22.109375 Z M 13.140625 -16.90625 C 11.648438 -16.90625 10.515625 -16.453125 9.734375 -15.546875 C 8.953125 -14.640625 8.5625 -13.414062 8.5625 -11.875 L 8.5625 -9.859375 C 8.5625 -8.316406 8.953125 -7.09375 9.734375 -6.1875 C 10.515625 -5.28125 11.648438 -4.828125 13.140625 -4.828125 C 14.640625 -4.828125 15.78125 -5.28125 16.5625 -6.1875 C 17.351562 -7.09375 17.75 -8.316406 17.75 -9.859375 L 17.75 -11.875 C 17.75 -13.414062 17.351562 -14.640625 16.5625 -15.546875 C 15.78125 -16.453125 14.640625 -16.90625 13.140625 -16.90625 Z M 13.140625 -16.90625 "/></g></g></g><g fill="#ffffff" fill-opacity="1"><g transform="translate(250.644962, 235.606273)"><g><path d="M 13.265625 -22.109375 C 15.347656 -22.109375 17.222656 -21.789062 18.890625 -21.15625 C 20.554688 -20.53125 21.878906 -19.601562 22.859375 -18.375 C 23.835938 -17.144531 24.328125 -15.644531 24.328125 -13.875 L 17.65625 -13.875 C 17.65625 -14.78125 17.253906 -15.507812 16.453125 -16.0625 C 15.660156 -16.625 14.691406 -16.90625 13.546875 -16.90625 C 11.910156 -16.90625 10.671875 -16.46875 9.828125 -15.59375 C 8.984375 -14.71875 8.5625 -13.476562 8.5625 -11.875 L 8.5625 -9.859375 C 8.5625 -8.253906 8.984375 -7.015625 9.828125 -6.140625 C 10.671875 -5.265625 11.910156 -4.828125 13.546875 -4.828125 C 14.691406 -4.828125 15.660156 -5.09375 16.453125 -5.625 C 17.253906 -6.164062 17.65625 -6.859375 17.65625 -7.703125 L 12.734375 -7.703125 L 12.734375 -12.125 L 24.328125 -12.125 L 24.328125 0 L 20.71875 0 L 20.03125 -2.140625 C 18.050781 -0.460938 15.460938 0.375 12.265625 0.375 C 8.660156 0.375 5.953125 -0.566406 4.140625 -2.453125 C 2.328125 -4.335938 1.421875 -7.144531 1.421875 -10.875 C 1.421875 -14.550781 2.445312 -17.34375 4.5 -19.25 C 6.550781 -21.15625 9.472656 -22.109375 13.265625 -22.109375 Z M 13.265625 -22.109375 "/></g></g></g><g fill="#ffffff" fill-opacity="1"><g transform="translate(276.962572, 235.606273)"><g><path d="M 22.96875 -15.0625 C 22.96875 -13.738281 22.609375 -12.539062 21.890625 -11.46875 C 21.179688 -10.394531 20.140625 -9.601562 18.765625 -9.09375 L 23.59375 0 L 15.765625 0 L 11.90625 -7.9375 L 9.3125 -7.9375 L 9.3125 0 L 2.34375 0 L 2.34375 -21.734375 L 15.640625 -21.734375 C 17.203125 -21.734375 18.535156 -21.429688 19.640625 -20.828125 C 20.742188 -20.234375 21.570312 -19.425781 22.125 -18.40625 C 22.6875 -17.382812 22.96875 -16.269531 22.96875 -15.0625 Z M 15.859375 -14.78125 C 15.859375 -15.351562 15.664062 -15.828125 15.28125 -16.203125 C 14.90625 -16.585938 14.445312 -16.78125 13.90625 -16.78125 L 9.3125 -16.78125 L 9.3125 -12.765625 L 13.90625 -12.765625 C 14.445312 -12.765625 14.90625 -12.957031 15.28125 -13.34375 C 15.664062 -13.738281 15.859375 -14.21875 15.859375 -14.78125 Z M 15.859375 -14.78125 "/></g></g></g><g fill="#ffffff" fill-opacity="1"><g transform="translate(301.542489, 235.606273)"><g><path d="M 16.90625 0 L 15.984375 -3.0625 L 8.375 -3.0625 L 7.453125 0 L 0.3125 0 L 8.25 -21.734375 L 16.359375 -21.734375 L 24.296875 0 Z M 9.828125 -7.9375 L 14.53125 -7.9375 L 12.265625 -15.671875 L 12.125 -15.671875 Z M 9.828125 -7.9375 "/></g></g></g><g fill="#ffffff" fill-opacity="1"><g transform="translate(326.122405, 235.606273)"><g><path d="M 21.015625 0 L 21.015625 -7.828125 C 21.015625 -8.796875 21.050781 -9.789062 21.125 -10.8125 C 21.195312 -11.84375 21.273438 -12.703125 21.359375 -13.390625 C 21.441406 -14.085938 21.492188 -14.53125 21.515625 -14.71875 L 21.390625 -14.71875 L 17.375 0 L 11.90625 0 L 7.859375 -14.6875 L 7.734375 -14.6875 C 7.753906 -14.5 7.8125 -14.0625 7.90625 -13.375 C 8.007812 -12.695312 8.101562 -11.84375 8.1875 -10.8125 C 8.269531 -9.789062 8.3125 -8.796875 8.3125 -7.828125 L 8.3125 0 L 1.890625 0 L 1.890625 -21.734375 L 11.75 -21.734375 L 15.03125 -9.1875 L 15.171875 -9.1875 L 18.421875 -21.734375 L 27.921875 -21.734375 L 27.921875 0 Z M 21.015625 0 "/></g></g></g></svg>